HIERARCHY
ROOT Hips
{
	OFFSET 0.000000 103.266502 0.000000
	CHANNELS 6 Xposition Yposition Zposition Xrotation Yrotation Zrotation 
	JOINT Spine
	{
		OFFSET -0.002400 12.777504 0.315300
		CHANNELS 3 Xrotation Yrotation Zrotation
		JOINT Spine1
		{
			OFFSET -0.002067 5.816869 0.032633
			CHANNELS 3 Xrotation Yrotation Zrotation
			JOINT Spine1_split
			{
				OFFSET -0.002067 5.816869 0.032633
				CHANNELS 3 Xrotation Yrotation Zrotation
				JOINT Spine2
				{
					OFFSET -0.002067 5.816869 0.032633
					CHANNELS 3 Xrotation Yrotation Zrotation
					JOINT Neck
					{
						OFFSET -0.003700 21.199493 -0.826900
						CHANNELS 3 Xrotation Yrotation Zrotation
						JOINT Head
						{
							OFFSET 0.000000 20.442200 4.834800
							CHANNELS 3 Xrotation Yrotation Zrotation
							JOINT HeadTop_End
							{
								OFFSET 0.000000 34.668396 4.968400
								CHANNELS 3 Xrotation Yrotation Zrotation
								End Site
								{
									OFFSET 0.000000 0.000000 0.000000
								}
							}
						}
					}
					JOINT LeftShoulder
					{
						OFFSET 3.288150 8.794197 -1.372250
						CHANNELS 3 Xrotation Yrotation Zrotation
						JOINT LeftShoulder_split
						{
							OFFSET 3.288150 8.794197 -1.372250
							CHANNELS 3 Xrotation Yrotation Zrotation
							JOINT LeftArm
							{
								OFFSET 11.953299 -2.279007 -0.146200
								CHANNELS 3 Xrotation Yrotation Zrotation
								JOINT LeftForeArm
								{
									OFFSET 18.448900 0.000000 0.000000
									CHANNELS 3 Xrotation Yrotation Zrotation
									JOINT LeftHand
									{
										OFFSET 29.527798 0.000000 0.000000
										CHANNELS 3 Xrotation Yrotation Zrotation
										JOINT LeftHandThumb1
										{
											OFFSET 10.739754 -2.369614 9.225399
											CHANNELS 3 Xrotation Yrotation Zrotation
											JOINT LeftHandThumb2
											{
												OFFSET 4.926170 -2.844131 2.844125
												CHANNELS 3 Xrotation Yrotation Zrotation
												JOINT LeftHandThumb3
												{
													OFFSET 4.614891 -2.664413 2.664409
													CHANNELS 3 Xrotation Yrotation Zrotation
													JOINT LeftHandThumb4
													{
														OFFSET 4.432465 -2.559082 2.559083
														CHANNELS 3 Xrotation Yrotation Zrotation
														End Site
														{
															OFFSET 0.000000 0.000000 0.000000
														}
													}
												}
											}
										}
										JOINT LeftHandIndex1
										{
											OFFSET 26.467674 0.187653 6.405298
											CHANNELS 3 Xrotation Yrotation Zrotation
											JOINT LeftHandIndex2
											{
												OFFSET 8.792900 0.000000 0.000000
												CHANNELS 3 Xrotation Yrotation Zrotation
												JOINT LeftHandIndex3
												{
													OFFSET 10.075203 0.000000 0.000000
													CHANNELS 3 Xrotation Yrotation Zrotation
													End Site
													{
														OFFSET 0.000000 0.000000 0.000000
													}
												}
											}
										}
										JOINT LeftHandMiddle1
										{
											OFFSET 25.764404 0.000000 0.000000
											CHANNELS 3 Xrotation Yrotation Zrotation
											JOINT LeftHandMiddle2
											{
												OFFSET 9.393974 0.000000 0.000000
												CHANNELS 3 Xrotation Yrotation Zrotation
												JOINT LeftHandMiddle3
												{
													OFFSET 10.771950 0.000000 0.000000
													CHANNELS 3 Xrotation Yrotation Zrotation
													End Site
													{
														OFFSET 0.000000 0.000000 0.000000
													}
												}
											}
										}
										JOINT LeftHandRing1
										{
											OFFSET 24.660927 0.144547 -6.225808
											CHANNELS 3 Xrotation Yrotation Zrotation
											JOINT LeftHandRing2
											{
												OFFSET 9.393799 0.000000 0.000000
												CHANNELS 3 Xrotation Yrotation Zrotation
												JOINT LeftHandRing3
												{
													OFFSET 9.928497 0.000000 0.000000
													CHANNELS 3 Xrotation Yrotation Zrotation
													End Site
													{
														OFFSET 0.000000 0.000000 0.000000
													}
												}
											}
										}
										JOINT LeftHandPinky1
										{
											OFFSET 23.655350 0.125290 -12.815412
											CHANNELS 3 Xrotation Yrotation Zrotation
											JOINT LeftHandPinky2
											{
												OFFSET 8.425102 0.000000 0.000000
												CHANNELS 3 Xrotation Yrotation Zrotation
												JOINT LeftHandPinky3
												{
													OFFSET 8.147003 0.000000 0.000000
													CHANNELS 3 Xrotation Yrotation Zrotation
													End Site
													{
														OFFSET 0.000000 0.000000 0.000000
													}
												}
											}
										}
									}
								}
							}
						}
					}
					JOINT RightShoulder
					{
						OFFSET -3.249400 8.794197 -1.372250
						CHANNELS 3 Xrotation Yrotation Zrotation
						JOINT RightShoulder_split
						{
							OFFSET -3.249400 8.794197 -1.372250
							CHANNELS 3 Xrotation Yrotation Zrotation
							JOINT RightArm
							{
								OFFSET -11.953299 -2.279007 -0.146200
								CHANNELS 3 Xrotation Yrotation Zrotation
								JOINT RightForeArm
								{
									OFFSET -18.448900 0.000000 0.000000
									CHANNELS 3 Xrotation Yrotation Zrotation
									JOINT RightHand
									{
										OFFSET -29.527802 0.000000 0.000000
										CHANNELS 3 Xrotation Yrotation Zrotation
										JOINT RightHandThumb1
										{
											OFFSET -10.739754 -2.369614 9.225399
											CHANNELS 3 Xrotation Yrotation Zrotation
											JOINT RightHandThumb2
											{
												OFFSET -4.926170 -2.844131 2.844125
												CHANNELS 3 Xrotation Yrotation Zrotation
												JOINT RightHandThumb3
												{
													OFFSET -4.614891 -2.664413 2.664409
													CHANNELS 3 Xrotation Yrotation Zrotation
													JOINT RightHandThumb4
													{
														OFFSET -4.432465 -2.559082 2.559083
														CHANNELS 3 Xrotation Yrotation Zrotation
														End Site
														{
															OFFSET 0.000000 0.000000 0.000000
														}
													}
												}
											}
										}
										JOINT RightHandIndex1
										{
											OFFSET -26.467674 0.187653 6.405298
											CHANNELS 3 Xrotation Yrotation Zrotation
											JOINT RightHandIndex2
											{
												OFFSET -8.792900 0.000000 0.000000
												CHANNELS 3 Xrotation Yrotation Zrotation
												JOINT RightHandIndex3
												{
													OFFSET -10.075203 0.000000 0.000000
													CHANNELS 3 Xrotation Yrotation Zrotation
													End Site
													{
														OFFSET 0.000000 0.000000 0.000000
													}
												}
											}
										}
										JOINT RightHandMiddle1
										{
											OFFSET -25.764404 0.000000 0.000000
											CHANNELS 3 Xrotation Yrotation Zrotation
											JOINT RightHandMiddle2
											{
												OFFSET -9.393974 0.000000 0.000000
												CHANNELS 3 Xrotation Yrotation Zrotation
												JOINT RightHandMiddle3
												{
													OFFSET -10.771950 0.000000 0.000000
													CHANNELS 3 Xrotation Yrotation Zrotation
													End Site
													{
														OFFSET 0.000000 0.000000 0.000000
													}
												}
											}
										}
										JOINT RightHandRing1
										{
											OFFSET -24.660927 0.144547 -6.225808
											CHANNELS 3 Xrotation Yrotation Zrotation
											JOINT RightHandRing2
											{
												OFFSET -9.393799 0.000000 0.000000
												CHANNELS 3 Xrotation Yrotation Zrotation
												JOINT RightHandRing3
												{
													OFFSET -9.928497 0.000000 0.000000
													CHANNELS 3 Xrotation Yrotation Zrotation
													End Site
													{
														OFFSET 0.000000 0.000000 0.000000
													}
												}
											}
										}
										JOINT RightHandPinky1
										{
											OFFSET -23.655350 0.125290 -12.815412
											CHANNELS 3 Xrotation Yrotation Zrotation
											JOINT RightHandPinky2
											{
												OFFSET -8.425102 0.000000 0.000000
												CHANNELS 3 Xrotation Yrotation Zrotation
												JOINT RightHandPinky3
												{
													OFFSET -8.147003 0.000000 0.000000
													CHANNELS 3 Xrotation Yrotation Zrotation
													End Site
													{
														OFFSET 0.000000 0.000000 0.000000
													}
												}
											}
										}
									}
								}
							}
						}
					}
				}
			}
		}
	}
	JOINT LeftUpLeg
	{
		OFFSET 11.394100 -6.187798 -0.413800
		CHANNELS 3 Xrotation Yrotation Zrotation
		JOINT LeftLeg
		{
			OFFSET 0.430247 -32.302673 3.732800
			CHANNELS 3 Xrotation Yrotation Zrotation
			JOINT LeftFoot
			{
				OFFSET -0.430247 -48.264931 -6.423300
				CHANNELS 3 Xrotation Yrotation Zrotation
				JOINT LeftToeBase
				{
					OFFSET 4.230900 -16.068199 23.438400
					CHANNELS 3 Xrotation Yrotation Zrotation
					JOINT LeftToe_End
					{
						OFFSET 4.510700 0.695400 19.974600
						CHANNELS 3 Xrotation Yrotation Zrotation
						End Site
						{
							OFFSET 0.000000 0.000000 0.000000
						}
					}
				}
			}
		}
	}
	JOINT RightUpLeg
	{
		OFFSET -11.333700 -6.187798 -0.413800
		CHANNELS 3 Xrotation Yrotation Zrotation
		JOINT RightLeg
		{
			OFFSET -0.430392 -32.302628 3.733000
			CHANNELS 3 Xrotation Yrotation Zrotation
			JOINT RightFoot
			{
				OFFSET 0.430392 -48.264973 -6.423500
				CHANNELS 3 Xrotation Yrotation Zrotation
				JOINT RightToeBase
				{
					OFFSET -4.230900 -16.068199 23.438400
					CHANNELS 3 Xrotation Yrotation Zrotation
					JOINT RightToe_End
					{
						OFFSET -4.510700 0.695400 19.974600
						CHANNELS 3 Xrotation Yrotation Zrotation
						End Site
						{
							OFFSET 0.000000 0.000000 0.000000
						}
					}
				}
			}
		}
	}
}
MOTION
Frames: 6
Frame Time: 0.016667
0.527872 93.692444 0.857749 5.323048 -6.856841 -1.447777 9.147041 3.475657 5.351707 6.474933 1.246103 1.050139 0.000000 0.000000 0.000000 6.471424 1.202600 1.091239 2.140433 -0.614932 -1.384966 -3.656099 -2.727633 0.126230 -0.000001 0.000000 -0.000000 1.724434 -9.915032 -14.934992 0.000000 0.000000 0.000000 -25.063142 2.043301 -69.542186 -0.000001 -31.031291 -0.000010 13.812953 3.247839 3.605256 -6.000705 -6.126812 4.616757 7.611085 24.884951 2.404797 -4.383186 25.960688 19.454334 0.000000 -0.000001 0.000001 0.627459 4.865871 -25.301795 0.596886 2.578225 -26.066037 0.000000 0.000000 0.000002 0.227914 3.736619 -13.565779 0.647511 2.679125 -27.169738 -0.000002 0.000001 -0.000000 0.497538 4.571299 -22.150809 0.640350 2.665145 -27.016038 0.000003 -0.000002 -0.000003 0.820466 5.237556 -29.403162 0.162692 1.372391 -13.519834 -0.000001 0.000000 0.000001 4.830917 17.858059 5.566070 0.000000 0.000000 0.000000 -15.198226 0.576454 66.755004 -0.000000 21.881882 0.000009 11.551352 9.546656 1.170293 -7.540278 -3.885174 -4.751894 7.955435 -28.077789 -3.121243 -4.006983 -18.468391 -17.389974 0.000000 0.000002 0.000002 0.082434 -1.088637 14.291449 0.320876 -1.700381 21.371532 0.000002 -0.000000 0.000002 0.522808 -4.330220 26.060464 0.321173 -1.701140 21.381518 -0.000001 -0.000001 -0.000001 2.075031 -6.645777 34.808922 0.321870 -1.702917 21.404850 -0.000002 0.000002 -0.000000 1.502788 -7.627458 42.127777 0.321167 -1.701123 21.381421 -0.000002 0.000000 0.000000 -51.388328 2.440632 22.180604 68.515000 10.888731 -1.220833 9.246825 7.236501 -12.639803 -30.670223 -0.000012 0.000000 -0.000000 -0.000000 0.000000 -36.159459 -6.589801 4.474692 44.374981 -1.385376 -1.007263 -16.158293 -5.483676 -4.087412 6.454559 0.000063 -0.004661 -0.000000 -0.000002 0.000000 
0.482760 93.768005 0.911301 5.343754 -6.869664 -1.211130 9.139686 3.487232 5.342711 6.470722 1.252375 1.050138 0.000000 0.000000 0.000000 6.467357 1.205347 1.091237 2.140431 -0.627687 -1.373677 -3.654027 -2.810158 -0.098615 0.000003 0.000000 -0.000000 1.719457 -9.903872 -14.934636 0.000000 0.000000 0.000000 -24.909451 1.975390 -69.518471 0.000005 -31.046242 -0.000001 13.575647 3.329221 3.235268 -6.000703 -6.126811 4.616755 7.611085 24.884951 2.404799 -4.383189 25.960697 19.454336 -0.000000 0.000000 0.000002 0.631449 4.874259 -25.392823 0.600989 2.586567 -26.156870 0.000000 -0.000001 -0.000001 0.229961 3.745032 -13.650470 0.651212 2.686316 -27.248794 0.000000 -0.000002 -0.000003 0.500607 4.578777 -22.229932 0.643785 2.671854 -27.089845 0.000000 0.000000 0.000001 0.824198 5.244117 -29.477126 0.164332 1.379241 -13.588685 -0.000001 0.000000 0.000000 4.818722 17.839442 5.583533 0.000000 0.000000 0.000000 -15.265584 -0.058699 66.673820 0.000004 21.871307 -0.000003 12.264140 9.590643 0.896138 -7.540280 -3.885177 -4.751892 7.955441 -28.077789 -3.121241 -4.006984 -18.468389 -17.389971 0.000001 0.000001 0.000000 0.081293 -1.093034 14.345801 0.324225 -1.708929 21.484191 -0.000002 -0.000000 -0.000001 0.524613 -4.333899 26.110848 0.324047 -1.708450 21.477917 -0.000000 -0.000000 0.000003 2.078614 -6.647922 34.855835 0.324531 -1.709699 21.494467 -0.000002 -0.000003 0.000002 1.506861 -7.629877 42.171439 0.323651 -1.707453 21.464848 0.000000 0.000003 0.000003 -51.779039 3.657373 22.801762 67.939694 11.286042 -1.276983 9.276438 5.832291 -12.185268 -30.423005 0.000006 -0.000003 0.000001 -0.000001 0.000000 -36.145989 -6.500502 4.216628 44.264817 -1.694115 -1.002748 -16.059173 -5.089383 -3.961533 6.359408 0.000050 -0.004613 0.000000 0.000000 0.000000 
0.410522 93.857201 1.049343 5.370594 -6.857156 -0.891849 9.117672 3.513797 5.323068 6.458227 1.270575 1.050138 0.000000 0.000000 0.000000 6.454843 1.219981 1.086653 2.140428 -0.658715 -1.366248 -3.626629 -2.970675 -0.373948 -0.000002 0.000000 0.000000 1.707823 -9.871297 -14.933502 0.000000 0.000000 0.000000 -24.720374 1.875865 -69.543415 -0.000016 -31.071808 -0.000046 13.451186 3.530294 2.736895 -6.000708 -6.126812 4.616756 7.611084 24.884951 2.404797 -4.383189 25.960694 19.454330 0.000000 0.000000 0.000000 0.643184 4.898764 -25.658649 0.613023 2.610906 -26.422256 0.000001 0.000000 0.000001 0.236004 3.769630 -13.897905 0.662091 2.707300 -27.479825 0.000002 -0.000000 -0.000001 0.509616 4.600627 -22.461174 0.653874 2.691484 -27.305544 0.000002 -0.000000 -0.000000 0.835136 5.263297 -29.693342 0.169209 1.399270 -13.789944 0.000001 0.000001 0.000001 4.783125 17.784938 5.634552 0.000000 0.000000 0.000000 -15.255328 -0.757016 66.514486 0.000001 21.916137 -0.000009 12.968065 9.611777 0.635159 -7.540278 -3.885175 -4.751894 7.955441 -28.077789 -3.121242 -4.006983 -18.468386 -17.389974 0.000001 -0.000004 -0.000000 0.084249 -1.104384 14.506164 0.334193 -1.734022 21.815993 -0.000003 -0.000000 0.000000 0.529955 -4.344721 26.259328 0.332571 -1.729969 21.762195 -0.000000 -0.000003 -0.000003 2.089179 -6.654226 34.994232 0.332468 -1.729704 21.758886 -0.000002 -0.000000 0.000000 1.515888 -7.639731 42.300010 0.331031 -1.726101 21.711155 -0.000001 0.000000 0.000005 -51.943298 4.300590 22.193390 67.161701 11.513973 -1.340725 8.973457 4.406386 -11.649869 -29.716886 0.000005 -0.000003 0.000000 0.000001 0.000001 -36.041542 -6.360705 3.894939 44.201982 -2.035921 -0.997118 -16.149641 -4.672604 -3.824912 6.366176 0.000077 -0.004643 0.000000 -0.000000 0.000000 
0.310943 93.968689 1.262650 5.402089 -6.821121 -0.501398 9.081656 3.551477 5.286447 6.437244 1.301644 1.047209 0.000000 0.000000 0.000000 6.434240 1.243750 1.079201 2.140443 -0.705677 -1.362459 -3.574624 -3.199441 -0.688517 0.000001 0.000000 -0.000000 1.689955 -9.818012 -14.926632 0.000000 0.000000 0.000000 -24.496745 1.749457 -69.601479 -0.000000 -31.094805 -0.000002 13.416807 3.707228 2.149824 -6.000707 -6.126814 4.616757 7.611083 24.884946 2.404802 -4.383186 25.960692 19.454332 0.000000 0.000000 -0.000002 0.662406 4.938237 -26.088517 0.632712 2.650126 -26.851388 0.000002 0.000000 0.000001 0.245998 3.809347 -14.298176 0.679854 2.741154 -27.853679 -0.000000 0.000000 -0.000001 0.524384 4.635900 -22.835387 0.670367 2.723153 -27.654703 0.000000 -0.000001 -0.000001 0.852989 5.294256 -30.043379 0.177267 1.431654 -14.115797 0.000000 -0.000000 0.000000 4.725661 17.696569 5.717007 0.000000 0.000000 0.000000 -15.174694 -1.505991 66.289923 -0.000001 21.983645 0.000003 13.660423 9.640876 0.382058 -7.540279 -3.885174 -4.751894 7.955437 -28.077789 -3.121241 -4.006983 -18.468384 -17.389972 0.000002 -0.000004 -0.000002 0.089120 -1.122867 14.767904 0.350761 -1.774864 22.357639 0.000005 -0.000002 -0.000000 0.538735 -4.362382 26.501878 0.346734 -1.765032 22.227087 -0.000002 -0.000003 -0.000004 2.106473 -6.664478 35.220499 0.345656 -1.762356 22.191539 0.000001 -0.000001 0.000004 1.527456 -7.652294 42.510332 0.343292 -1.756559 22.114469 -0.000001 0.000000 0.000000 -51.961593 5.336700 21.140843 65.946624 11.258948 -1.417466 8.289889 3.014067 -10.995919 -28.605215 -0.000000 0.000000 -0.000000 -0.000000 0.000000 -35.872434 -6.179554 3.521781 44.120269 -2.406229 -0.991053 -16.299348 -4.242402 -3.680826 6.376121 0.000061 -0.004660 -0.000000 -0.000000 -0.000000 
0.202076 94.108833 1.546320 5.436687 -6.763266 -0.046499 9.032760 3.595565 5.226930 6.408332 1.343090 1.038723 0.000000 0.000000 0.000000 6.405873 1.274519 1.063855 2.140422 -0.766235 -1.362491 -3.498515 -3.486840 -1.029328 -0.000001 0.000000 -0.000000 1.665929 -9.745067 -14.916925 0.000000 0.000000 0.000000 -24.239249 1.601052 -69.677150 0.000002 -31.120876 0.000012 13.466439 3.907409 1.467195 -6.000705 -6.126812 4.616759 7.611085 24.884946 2.404801 -4.383189 25.960688 19.454332 -0.000002 -0.000001 -0.000001 0.688960 4.991563 -26.671595 0.659894 2.703092 -27.433474 0.000001 0.000001 0.000002 0.260009 3.863132 -14.841359 0.704323 2.786919 -28.361199 0.000002 0.000001 -0.000002 0.544808 4.683636 -23.343346 0.693073 2.766001 -28.128855 0.000004 0.000002 0.000002 0.877544 5.336119 -30.518720 0.188490 1.475573 -14.558444 -0.000003 0.000001 -0.000001 4.647955 17.576314 5.828743 0.000000 0.000000 0.000000 -15.030443 -2.293395 66.012972 -0.000002 22.078585 0.000018 14.337134 9.672004 0.139477 -7.540278 -3.885178 -4.751893 7.955441 -28.077793 -3.121242 -4.006984 -18.468384 -17.389971 0.000003 0.000001 0.000001 0.095885 -1.148098 15.126593 0.374127 -1.830574 23.099763 0.000001 0.000002 0.000002 0.550902 -4.386543 26.834526 0.366671 -1.812989 22.865141 0.000002 0.000000 0.000002 2.130302 -6.678438 35.531088 0.364159 -1.807042 22.785839 -0.000000 -0.000003 -0.000000 1.543444 -7.669479 42.799246 0.360482 -1.798259 22.668875 0.000001 0.000000 0.000002 -51.672416 6.484052 19.925402 64.138263 10.895248 -1.498332 7.394407 1.727104 -10.203815 -27.141384 -0.000002 0.000002 0.000000 0.000000 -0.000000 -35.627974 -5.955759 3.096051 43.995318 -2.798986 -0.984473 -16.491622 -3.806307 -3.521576 6.390141 0.000070 -0.004692 0.000001 -0.000002 0.000000 
0.097674 94.270859 1.901950 5.472922 -6.696650 0.455703 8.971416 3.646780 5.147168 6.371683 1.394207 1.027219 0.000000 0.000000 0.000000 6.369872 1.312750 1.043857 2.140426 -0.838051 -1.364912 -3.398706 -3.822953 -1.385940 0.000000 0.000000 -0.000000 1.636342 -9.653412 -14.904286 0.000000 0.000000 0.000000 -23.948590 1.435605 -69.754926 -0.000004 -31.147527 -0.000014 13.593091 4.121651 0.695799 -6.000705 -6.126814 4.616756 7.611087 24.884949 2.404799 -4.383186 25.960694 19.454334 0.000000 -0.000001 0.000003 0.722735 5.057513 -27.397227 0.694467 2.768608 -28.157728 0.000000 -0.000001 -0.000002 0.278159 3.929870 -15.517526 0.735368 2.843606 -28.993173 0.000001 0.000001 0.000003 0.570815 4.742809 -23.975974 0.721854 2.819109 -28.719535 0.000003 0.000001 0.000002 0.908612 5.387981 -31.110928 0.202959 1.530179 -15.110048 -0.000004 0.000001 -0.000001 4.551731 17.426114 5.967516 0.000000 0.000000 0.000000 -14.828534 -3.107084 65.696680 0.000002 22.200207 -0.000017 14.994408 9.704612 -0.091107 -7.540280 -3.885175 -4.751894 7.955439 -28.077789 -3.121241 -4.006986 -18.468384 -17.389971 0.000001 -0.000002 0.000001 0.104557 -1.179628 15.577662 0.404497 -1.900194 24.033161 0.000003 -0.000000 -0.000002 0.566408 -4.416836 27.253321 0.392520 -1.873090 23.669049 -0.000000 -0.000001 -0.000001 2.160396 -6.695844 35.922383 0.388156 -1.863118 23.535206 -0.000002 0.000001 0.000002 1.563683 -7.691030 43.163561 0.382761 -1.850672 23.368430 -0.000002 -0.000001 0.000001 -51.220145 7.487995 18.747208 61.732793 10.373704 -1.572969 6.662104 0.665327 -9.296193 -25.378712 -0.000000 -0.000000 -0.000001 -0.000000 0.000000 -35.312935 -5.693296 2.620373 43.837937 -3.198298 -0.977414 -16.726361 -3.371425 -3.336641 6.406408 0.000061 -0.004743 -0.000000 0.000000 0.000000 
